REM MD5 781d1610543ae9236aac155ab3a1954c
FILE "Hyper PlayStation Re-mix 1999 No. 2 (Japan).bin" BINARY
  TRACK 01 MODE2/2352
    INDEX 01 00:00:00
  TRACK 02 AUDIO
    INDEX 00 42:21:39
    INDEX 01 42:24:39
  TRACK 03 AUDIO
    INDEX 00 42:29:14
    INDEX 01 42:32:14
REM LEADOUT 46:04:04
